<?xml version="1.0" encoding="UTF-8"?>
<svg version="1.1" xmlns="http://www.w3.org/2000/svg" width="190" height="185">
<path d="M0 0 C1.34469669 -0.00571311 2.68938854 -0.01268098 4.03407288 -0.02079773 C7.66226562 -0.03864032 11.29021535 -0.03757774 14.91843867 -0.03185534 C17.95752159 -0.02875062 20.99655869 -0.03487012 24.03563505 -0.04089409 C31.2099939 -0.05490839 38.38423359 -0.05340383 45.55859375 -0.04199219 C52.93809138 -0.030513 60.31722549 -0.04459015 67.69667524 -0.07138866 C74.05367417 -0.09360219 80.41055945 -0.10017039 86.7675944 -0.09431225 C90.5550661 -0.09095505 94.34230484 -0.09327475 98.12974358 -0.11056328 C101.69306716 -0.12612113 105.25585544 -0.12198037 108.81915855 -0.10325813 C110.73515044 -0.09786305 112.65116688 -0.11201874 114.56710815 -0.12695312 C125.54316899 -0.03405297 134.34128082 2.85689036 142.46899414 10.40405273 C150.20371609 18.78333484 150.9142936 28.52147107 150.87304688 39.47607422 C150.87991013 40.75855042 150.88677338 42.04102661 150.8938446 43.36236572 C150.91168011 46.856268 150.91062598 50.34991781 150.90490222 53.8438518 C150.90179645 56.7710956 150.90791814 59.69829187 150.91394097 62.62552887 C150.92795294 69.53620066 150.92645267 76.44674873 150.91503906 83.35742188 C150.90356015 90.4642669 150.91763703 97.57073445 150.94443554 104.67752975 C150.96665338 110.80098594 150.97321631 116.92432417 150.96735913 123.04781777 C150.96400294 126.69556449 150.96631474 130.34306932 150.98361015 133.99078178 C151.00207232 138.06164008 150.98783 142.13177252 150.97070312 146.20263672 C150.98520508 147.99297081 150.98520508 147.99297081 151 149.81947327 C150.90493078 160.64509756 147.90392072 169.39720873 140.46899414 177.40405273 C131.95376622 185.26426312 122.05764752 185.84839801 110.93798828 185.80810547 C109.59329159 185.81381858 108.24859974 185.82078645 106.90391541 185.8289032 C103.27572266 185.84674579 99.64777293 185.84568321 96.01954961 185.83996081 C92.98046669 185.83685609 89.9414296 185.84297559 86.90235323 185.84899956 C79.72799438 185.86301386 72.55375469 185.8615093 65.37939453 185.85009766 C57.9998969 185.83861846 50.62076279 185.85269562 43.24131304 185.87949413 C36.88431412 185.90170765 30.52742883 185.90827586 24.17039388 185.90241772 C20.38292218 185.89906052 16.59568344 185.90138022 12.80824471 185.91866875 C9.24492112 185.9342266 5.68213284 185.93008584 2.11882973 185.9113636 C0.20283784 185.90596852 -1.7131786 185.92012421 -3.62911987 185.93505859 C-14.60518071 185.84215844 -23.40329254 182.95121511 -31.53100586 175.40405273 C-39.2657278 167.02477063 -39.97630531 157.2866344 -39.93505859 146.33203125 C-39.94192184 145.04955505 -39.9487851 143.76707886 -39.95585632 142.44573975 C-39.97369183 138.95183747 -39.9726377 135.45818766 -39.96691394 131.96425366 C-39.96380817 129.03700987 -39.96992986 126.1098136 -39.97595268 123.1825766 C-39.98996466 116.27190481 -39.98846439 109.36135674 -39.97705078 102.45068359 C-39.96557187 95.34383857 -39.97964875 88.23737102 -40.00644726 81.13057572 C-40.0286651 75.00711953 -40.03522802 68.8837813 -40.02937084 62.7602877 C-40.02601465 59.11254098 -40.02832646 55.46503615 -40.04562187 51.81732368 C-40.06408404 47.74646539 -40.04984172 43.67633295 -40.03271484 39.60546875 C-40.04238281 38.41191269 -40.05205078 37.21835663 -40.06201172 35.9886322 C-39.9669425 25.16300791 -36.96593244 16.41089674 -29.53100586 8.40405273 C-21.01577794 0.54384235 -11.11965924 -0.04029254 0 0 Z " fill="#212A35" transform="translate(39.531005859375,-0.404052734375)"/>
<path d="M0 0 C1.15494965 -0.00852997 2.30989929 -0.01705994 3.49984741 -0.02584839 C4.75296722 -0.02494202 6.00608704 -0.02403564 7.29718018 -0.02310181 C8.64143241 -0.02909178 9.98568121 -0.0358984 11.32992554 -0.04345703 C14.97063995 -0.06107904 18.61126026 -0.06581087 22.25201321 -0.0670886 C24.53060056 -0.0685132 26.80916422 -0.07278868 29.08774567 -0.07808304 C37.04852305 -0.09657248 45.00923359 -0.10475523 52.97003174 -0.10317993 C60.37160508 -0.10197961 67.77288631 -0.12306301 75.17438579 -0.15466726 C81.54405095 -0.18088895 87.91362107 -0.19154473 94.28333974 -0.19026911 C98.08093245 -0.1897611 101.87826555 -0.19535427 105.67580414 -0.21662521 C109.25137632 -0.23610686 112.82644393 -0.23606529 116.40203476 -0.22159195 C118.32522805 -0.2185313 120.24842193 -0.23511165 122.17153931 -0.25247192 C133.13606395 -0.17360135 142.00379507 2.68782358 150.10675049 10.26742554 C155.49302742 16.46232928 157.41385628 22.03821978 157.33380127 30.27059937 C157.33409332 31.06136871 157.33438538 31.85213806 157.33468628 32.66687012 C157.33329769 35.26951228 157.31775878 37.87186489 157.30206299 40.47445679 C157.29833118 42.28334904 157.295485 44.09224331 157.29348755 45.90113831 C157.28586429 50.65390641 157.26622702 55.40655159 157.24407959 60.15927124 C157.21998881 65.86616221 157.21083395 71.57309436 157.19917297 77.28002167 C157.17980188 85.94257502 157.14147019 94.60485885 157.10675049 103.26742554 C139.61675049 103.26742554 122.12675049 103.26742554 104.10675049 103.26742554 C103.77675049 77.19742554 103.44675049 51.12742554 103.10675049 24.26742554 C77.03675049 24.26742554 50.96675049 24.26742554 24.10675049 24.26742554 C23.77675049 50.33742554 23.44675049 76.40742554 23.10675049 103.26742554 C5.28675049 103.26742554 -12.53324951 103.26742554 -30.89324951 103.26742554 C-31.05368475 83.37345611 -31.05368475 83.37345611 -31.08856201 74.86508179 C-31.11243327 69.0691963 -31.14061186 63.27356463 -31.19500732 57.47787476 C-31.2386071 52.8029503 -31.26241647 48.12829819 -31.27275848 43.45318604 C-31.28012455 41.67345902 -31.29450873 39.89374618 -31.31616974 38.11413574 C-31.34539229 35.61282648 -31.34919776 33.11262922 -31.34735107 30.61117554 C-31.36173218 29.88252792 -31.37611328 29.15388031 -31.39093018 28.40315247 C-31.32977323 20.70056903 -27.74467748 14.50410389 -22.66278076 8.86898804 C-16.44698748 3.24321487 -8.34132266 0.02798156 0 0 Z " fill="#6E51EB" transform="translate(31.89324951171875,-0.267425537109375)"/>
<path d="M0 0 C1.46566406 -0.00386719 1.46566406 -0.00386719 2.9609375 -0.0078125 C3.98445313 -0.00007813 5.00796875 0.00765625 6.0625 0.015625 C7.08601563 0.00789063 8.10953125 0.00015625 9.1640625 -0.0078125 C10.14117187 -0.00523438 11.11828125 -0.00265625 12.125 0 C13.02347656 0.00225586 13.92195313 0.00451172 14.84765625 0.00683594 C17.0625 0.265625 17.0625 0.265625 19.0625 2.265625 C19.38134766 4.51220703 19.38134766 4.51220703 19.4765625 7.2734375 C19.53457031 8.75263672 19.53457031 8.75263672 19.59375 10.26171875 C19.6246875 11.29425781 19.655625 12.32679687 19.6875 13.390625 C19.74550781 14.95103516 19.74550781 14.95103516 19.8046875 16.54296875 C19.89914766 19.11700811 19.98471214 21.69103655 20.0625 24.265625 C20.71323486 24.28544434 21.36396973 24.30526367 22.03442383 24.32568359 C24.98169151 24.42091799 27.92824885 24.53060318 30.875 24.640625 C32.41124023 24.68703125 32.41124023 24.68703125 33.97851562 24.734375 C34.96142578 24.77304688 35.94433594 24.81171875 36.95703125 24.8515625 C37.86300049 24.8829834 38.76896973 24.9144043 39.70239258 24.94677734 C42.0625 25.265625 42.0625 25.265625 45.0625 27.265625 C45.7109375 30.36938477 45.7109375 30.36938477 45.0625 34.265625 C42.97041828 37.40913505 40.3707175 39.96222874 37.6875 42.60546875 C36.92961182 43.37242569 36.17172363 44.13938263 35.39086914 44.92958069 C33.7853931 46.54418999 32.17096348 48.14993878 30.54833984 49.74731445 C28.07245683 52.19328845 25.63912103 54.67658149 23.20703125 57.16601562 C21.64043217 58.73158331 20.07149564 60.29481622 18.5 61.85546875 C17.77570801 62.59909164 17.05141602 63.34271454 16.30517578 64.10887146 C10.51229371 69.71980937 10.51229371 69.71980937 6.0625 70.19189453 C0.60577813 69.61298288 -2.7230451 65.60489205 -6.375 61.85546875 C-7.14054199 61.09520889 -7.90608398 60.33494904 -8.69482422 59.551651 C-10.30453418 57.94300082 -11.90430646 56.32435262 -13.49462891 54.6965332 C-15.93132009 52.20943276 -18.40551017 49.7648667 -20.88671875 47.32226562 C-22.44771695 45.75238719 -24.00639312 44.18019573 -25.5625 42.60546875 C-26.30298584 41.87601547 -27.04347168 41.14656219 -27.80639648 40.39500427 C-31.12887537 36.94801175 -32.79570281 35.20851723 -33.5234375 30.36938477 C-32.9375 27.265625 -32.9375 27.265625 -30.9375 25.265625 C-28.59912109 24.94677734 -28.59912109 24.94677734 -25.7109375 24.8515625 C-24.6796875 24.81289062 -23.6484375 24.77421875 -22.5859375 24.734375 C-21.50570312 24.7034375 -20.42546875 24.6725 -19.3125 24.640625 C-18.22453125 24.60195312 -17.1365625 24.56328125 -16.015625 24.5234375 C-13.32308835 24.42896253 -10.63056243 24.34340069 -7.9375 24.265625 C-7.91768066 23.60965332 -7.89786133 22.95368164 -7.87744141 22.27783203 C-7.78237493 19.31501431 -7.67262248 16.35291968 -7.5625 13.390625 C-7.5315625 12.35808594 -7.500625 11.32554688 -7.46875 10.26171875 C-7.43007812 9.27558594 -7.39140625 8.28945312 -7.3515625 7.2734375 C-7.3201416 6.36223145 -7.2887207 5.45102539 -7.25634766 4.51220703 C-6.60607057 -0.06960748 -3.99592403 0.01003281 0 0 Z " fill="#EB9A2F" transform="translate(88.9375,104.734375)"/>
<path d="M0 0 C6.4506904 0.08206985 10.61959979 2.86941041 15.875 6.375 C17.10162354 7.17224487 17.10162354 7.17224487 18.35302734 7.9855957 C20.05439721 9.09261556 21.75245422 10.20474256 23.44726562 11.32177734 C25.94937134 12.96671562 28.46385454 14.59048016 30.984375 16.20703125 C42.77911011 23.77911011 42.77911011 23.77911011 44 25 C44.61328125 28.17578125 44.61328125 28.17578125 44 32 C41.42177964 34.62144417 38.3475073 36.34066352 35.1875 38.1875 C33.35665833 39.30841001 31.52593214 40.42950866 29.6953125 41.55078125 C28.75333008 42.11619629 27.81134766 42.68161133 26.84082031 43.26416016 C24.05653874 44.96545287 21.33354579 46.73556498 18.6171875 48.54296875 C17.76745361 49.10282471 16.91771973 49.66268066 16.04223633 50.23950195 C14.41668327 51.31162758 12.79648945 52.39193337 11.18237305 53.48120117 C5.71754502 57.01348407 5.71754502 57.01348407 2.08984375 56.9453125 C0 56 0 56 -2 54 C-2.25396729 51.79882812 -2.25396729 51.79882812 -2.25878906 49.03125 C-2.26509338 47.99677734 -2.27139771 46.96230469 -2.27789307 45.89648438 C-2.2738446 44.77564453 -2.26979614 43.65480469 -2.265625 42.5 C-2.26753845 41.35337891 -2.2694519 40.20675781 -2.27142334 39.02539062 C-2.27278622 36.59765402 -2.26908267 34.16991016 -2.26074219 31.7421875 C-2.25004438 28.01545927 -2.26063431 24.28921314 -2.2734375 20.5625 C-2.27211592 18.20833226 -2.26955357 15.85416483 -2.265625 13.5 C-2.26967346 12.37916016 -2.27372192 11.25832031 -2.27789307 10.10351562 C-2.27158875 9.06904297 -2.26528442 8.03457031 -2.25878906 6.96875 C-2.25719788 6.05544922 -2.25560669 5.14214844 -2.25396729 4.20117188 C-2 2 -2 2 0 0 Z " fill="#6D51EA" transform="translate(76,39)"/>
<path d="M0 0 C1.15798096 -0.00426498 2.31596191 -0.00852997 3.5090332 -0.01292419 C4.77562775 -0.01247101 6.04222229 -0.01201782 7.34719849 -0.0115509 C8.69764295 -0.01454383 10.04808656 -0.01794667 11.39852905 -0.02172852 C15.06387199 -0.03055916 18.72919158 -0.03290624 22.39454412 -0.0335443 C24.68547782 -0.03425534 26.97640558 -0.03639069 29.2673378 -0.03904152 C37.26238634 -0.04829188 45.25741821 -0.0523768 53.25247192 -0.05158997 C60.70057044 -0.05098927 68.14859652 -0.06154027 75.59667671 -0.07733363 C81.99510313 -0.09041691 88.39350589 -0.09577353 94.79194558 -0.09513456 C98.61171842 -0.0948798 102.43142687 -0.09771877 106.25118637 -0.10831261 C109.8446551 -0.11800683 113.43799805 -0.11806373 117.03147125 -0.11079597 C118.97451894 -0.10925488 120.91756665 -0.11758767 122.8605957 -0.12623596 C124.02421631 -0.12204147 125.18783691 -0.11784698 126.38671875 -0.11352539 C127.39365217 -0.11407016 128.40058559 -0.11461493 129.43803215 -0.1151762 C132.64395289 0.16165664 135.31560103 1.00851517 138.32034302 2.13371277 C135.09095044 3.21017696 132.77530594 3.25686278 129.37889099 3.25396729 C128.13788635 3.25534195 126.89688171 3.25671661 125.61827087 3.25813293 C124.24072242 3.2545938 122.8631742 3.25095899 121.48562622 3.24723816 C120.03692629 3.24695613 118.58822622 3.24711434 117.13952637 3.24768066 C113.20386664 3.24796801 109.26823728 3.2420814 105.33258462 3.23510671 C101.22061075 3.22886274 97.10863621 3.22826854 92.99665833 3.2270813 C85.2087803 3.22397107 77.42091628 3.21576182 69.63304442 3.20573181 C60.76736553 3.19456113 51.90168598 3.18905781 43.0360018 3.18403637 C24.79744093 3.17357896 6.5588931 3.15598546 -11.67965698 3.13371277 C-8.26397489 -0.28196932 -4.66444243 0.00776887 0 0 Z " fill="#473C94" transform="translate(31.679656982421875,-0.1337127685546875)"/>
<path d="M0 0 C0.69416016 -0.01224609 1.38832031 -0.02449219 2.10351562 -0.03710938 C3.92470901 -0.04239842 5.7453692 0.06580793 7.5625 0.1875 C9.5625 2.1875 9.5625 2.1875 9.80541992 4.05102539 C9.79925659 5.15692017 9.79925659 5.15692017 9.79296875 6.28515625 C9.79103516 7.08630859 9.78910156 7.88746094 9.78710938 8.71289062 C9.76874023 9.96875977 9.76874023 9.96875977 9.75 11.25 C9.74935547 12.09111328 9.74871094 12.93222656 9.74804688 13.79882812 C9.70273184 20.04726816 9.70273184 20.04726816 8.5625 21.1875 C5.8851862 21.28731214 3.23945825 21.32629875 0.5625 21.3125 C-0.56285156 21.31830078 -0.56285156 21.31830078 -1.7109375 21.32421875 C-7.31088947 21.31411053 -7.31088947 21.31411053 -8.4375 20.1875 C-8.53610131 18.78401265 -8.56828937 17.37569523 -8.5703125 15.96875 C-8.57160156 15.11925781 -8.57289063 14.26976563 -8.57421875 13.39453125 C-8.57035156 12.50121094 -8.56648437 11.60789062 -8.5625 10.6875 C-8.56636719 9.79417969 -8.57023438 8.90085937 -8.57421875 7.98046875 C-8.57292969 7.13097656 -8.57164062 6.28148438 -8.5703125 5.40625 C-8.56918457 4.62185547 -8.56805664 3.83746094 -8.56689453 3.02929688 C-8.25253567 -1.44527532 -3.45597995 0.00319112 0 0 Z " fill="#1A242C" transform="translate(160.4375,61.8125)"/>
<path d="M0 0 C1.04671875 -0.04898437 2.0934375 -0.09796875 3.171875 -0.1484375 C7.39185576 0.56917344 8.7644427 1.92435452 11.25 5.375 C11.64569996 8.19805343 11.78042986 10.34334144 11.625 13.125 C11.60373047 14.15173828 11.60373047 14.15173828 11.58203125 15.19921875 C11.43375319 20.19124681 11.43375319 20.19124681 10.25 21.375 C7.5726862 21.47481214 4.92695825 21.51379875 2.25 21.5 C1.12464844 21.50580078 1.12464844 21.50580078 -0.0234375 21.51171875 C-5.62338947 21.50161053 -5.62338947 21.50161053 -6.75 20.375 C-6.84860131 18.97151265 -6.88078937 17.56319523 -6.8828125 16.15625 C-6.88410156 15.30675781 -6.88539063 14.45726562 -6.88671875 13.58203125 C-6.88285156 12.68871094 -6.87898437 11.79539062 -6.875 10.875 C-6.87886719 9.98167969 -6.88273438 9.08835937 -6.88671875 8.16796875 C-6.88542969 7.31847656 -6.88414062 6.46898437 -6.8828125 5.59375 C-6.88168457 4.80935547 -6.88055664 4.02496094 -6.87939453 3.21679688 C-6.59728569 -0.7987297 -3.35911741 0.1065086 0 0 Z " fill="#19242B" transform="translate(158.75,22.625)"/>
<path d="M0 0 C1.90072266 0.02126953 1.90072266 0.02126953 3.83984375 0.04296875 C5.74443359 0.05263672 5.74443359 0.05263672 7.6875 0.0625 C10.77734375 0.23046875 10.77734375 0.23046875 11.77734375 1.23046875 C11.87594506 2.6339561 11.90813312 4.04227352 11.91015625 5.44921875 C11.91208984 6.72345703 11.91208984 6.72345703 11.9140625 8.0234375 C11.91019531 8.91675781 11.90632813 9.81007813 11.90234375 10.73046875 C11.90814453 12.07044922 11.90814453 12.07044922 11.9140625 13.4375 C11.91277344 14.28699219 11.91148438 15.13648437 11.91015625 16.01171875 C11.90902832 16.79611328 11.90790039 17.58050781 11.90673828 18.38867188 C11.77734375 20.23046875 11.77734375 20.23046875 10.77734375 21.23046875 C8.26598271 21.33021907 5.7883096 21.36929058 3.27734375 21.35546875 C2.57480469 21.35933594 1.87226563 21.36320312 1.1484375 21.3671875 C-4.09604247 21.35708253 -4.09604247 21.35708253 -5.22265625 20.23046875 C-5.34933389 17.24028714 -5.40786463 14.28352767 -5.41015625 11.29296875 C-5.42240234 10.45572266 -5.43464844 9.61847656 -5.44726562 8.75585938 C-5.44919922 7.95470703 -5.45113281 7.15355469 -5.453125 6.328125 C-5.45723389 5.59086182 -5.46134277 4.85359863 -5.46557617 4.09399414 C-4.9954657 0.48760895 -3.38197158 0.24186221 0 0 Z " fill="#19242A" transform="translate(26.22265625,61.76953125)"/>
<path d="M0 0 C1.17046875 0.03609375 2.3409375 0.0721875 3.546875 0.109375 C4.43890625 0.15578125 5.3309375 0.2021875 6.25 0.25 C6.27888146 3.56248187 6.29675799 6.87493167 6.3125 10.1875 C6.32087891 11.13302734 6.32925781 12.07855469 6.33789062 13.05273438 C6.34272461 14.40141602 6.34272461 14.40141602 6.34765625 15.77734375 C6.35551147 17.02632446 6.35551147 17.02632446 6.36352539 18.30053711 C6.25 20.25 6.25 20.25 5.25 21.25 C2.73863896 21.34975032 0.26096585 21.38882183 -2.25 21.375 C-2.95253906 21.37886719 -3.65507812 21.38273437 -4.37890625 21.38671875 C-9.62338622 21.37661378 -9.62338622 21.37661378 -10.75 20.25 C-10.93062277 17.62948926 -11.02807881 15.06039474 -11.0625 12.4375 C-11.09150391 11.71240234 -11.12050781 10.98730469 -11.15039062 10.24023438 C-11.19082032 6.84103023 -11.0018655 4.64350135 -9.15234375 1.75390625 C-5.9423815 -0.25558231 -3.75726495 -0.1502906 0 0 Z " fill="#18232A" transform="translate(31.75,22.75)"/>
<path d="M0 0 C0.99 0.33 1.98 0.66 3 1 C-1.24834367 4.64143743 -4.53461169 6.7041534 -10.125 7.375 C-13 7 -13 7 -14.875 5 C-15.24625 4.34 -15.6175 3.68 -16 3 C-15.2575 3.350625 -14.515 3.70125 -13.75 4.0625 C-10.68082055 5.10881118 -9.93430322 5.2082425 -7 4 C-5.80833412 3.29869778 -4.62119055 2.58968108 -3.4375 1.875 C-2.303125 1.25625 -1.16875 0.6375 0 0 Z " fill="#182420" transform="translate(89,90)"/>
</svg>
